<svg version="1.1" id="Layer_1" xmlns="http://www.w3.org/2000/svg" xmlns:xlink="http://www.w3.org/1999/xlink" x="0px" y="0px"
	 width="100%" viewBox="0 0 934 934" enable-background="new 0 0 934 934" xml:space="preserve">
<path fill="#0190D2" opacity="1.000000" stroke="none" 
	d="
M425.000000,1.000007 
	C453.354218,1.000000 481.708466,1.000000 510.335999,1.403214 
	C511.455536,2.201013 512.270874,2.839116 513.152893,2.950775 
	C519.006409,3.691799 524.922852,4.037412 530.728088,5.038376 
	C547.606018,7.948542 564.635193,10.307973 581.249634,14.345798 
	C609.450134,21.199377 636.854675,30.759254 663.135803,43.127590 
	C687.378113,54.536438 710.825439,67.401871 732.820435,82.882095 
	C759.515686,101.670387 784.874756,121.952522 806.731262,146.307007 
	C817.499756,158.306335 828.229980,170.376724 838.303223,182.954956 
	C854.860046,203.628860 869.424194,225.741714 881.011902,249.561874 
	C890.850159,269.785706 900.531555,290.214722 908.275574,311.290314 
	C915.265869,330.314667 920.374512,350.152985 924.756165,369.976440 
	C928.626770,387.487152 930.331787,405.475342 933.092224,423.237305 
	C933.196350,423.907501 934.340515,424.416077 935.000000,425.000000 
	C935.000000,453.354218 935.000000,481.708466 934.596802,510.336060 
	C933.799072,511.455505 933.160889,512.270813 933.049255,513.152710 
	C932.308167,519.006226 931.962524,524.922668 930.961609,530.727905 
	C928.051453,547.605835 925.692017,564.635071 921.654236,581.249512 
	C914.800659,609.450012 905.240967,636.854614 892.872375,663.135742 
	C881.463440,687.377869 868.598267,710.825317 853.117310,732.819763 
	C834.328125,759.514404 814.048462,784.876038 789.693054,806.732117 
	C777.693420,817.500488 765.622803,828.230652 753.044312,838.303772 
	C732.370239,854.860229 710.257690,869.424805 686.437561,881.012512 
	C666.213989,890.850525 645.785278,900.531860 624.709961,908.275757 
	C605.685608,915.266052 585.847107,920.374390 566.023621,924.756042 
	C548.512817,928.626526 530.524597,930.331787 512.762634,933.092224 
	C512.092468,933.196350 511.583893,934.340515 511.000000,935.000000 
	C482.645782,935.000000 454.291534,935.000000 425.664001,934.596802 
	C424.544617,933.798950 423.729370,933.160889 422.847534,933.049255 
	C416.993958,932.308228 411.077454,931.962524 405.272217,930.961548 
	C388.394287,928.051392 371.365021,925.692078 354.750549,921.654175 
	C326.549957,914.800659 299.145386,905.240845 272.864227,892.872437 
	C248.621872,881.463623 225.174606,868.597961 203.179382,853.118042 
	C176.483673,834.329773 151.125290,814.046143 129.267090,789.693115 
	C118.497810,777.694702 107.769302,765.622986 97.696358,753.044617 
	C81.140022,732.370361 66.575310,710.257874 54.987656,686.437683 
	C45.149609,666.213989 35.468212,645.785278 27.724325,624.709839 
	C20.734037,605.685486 15.625512,585.847168 11.243778,566.023682 
	C7.373254,548.512878 5.668168,530.524658 2.907779,512.762695 
	C2.803614,512.092468 1.659504,511.583893 1.000005,511.000000 
	C1.000000,482.645782 1.000000,454.291534 1.403222,425.663971 
	C2.201020,424.544586 2.839124,423.729370 2.950762,422.847534 
	C3.691784,416.993988 4.037414,411.077454 5.038360,405.272247 
	C7.948493,388.394348 10.307827,371.365082 14.345686,354.750610 
	C21.199343,326.550110 30.759079,299.145538 43.127506,272.864380 
	C54.536423,248.622116 67.401886,225.174759 82.881966,203.179642 
	C101.670250,176.483994 121.953575,151.125366 146.306625,129.267273 
	C158.305176,118.497948 170.376968,107.769272 182.955414,97.696266 
	C203.629715,81.139992 225.742172,66.575233 249.562378,54.987602 
	C269.786041,45.149551 290.214783,35.468208 311.290161,27.724319 
	C330.314514,20.734064 350.152863,15.625500 369.976349,11.243774 
	C387.487091,7.373240 405.475311,5.668181 423.237335,2.907784 
	C423.907532,2.803627 424.416107,1.659509 425.000000,1.000007 
M195.636490,268.620636 
	C196.265213,290.046936 204.370789,308.092682 220.569351,322.166870 
	C229.845703,330.226624 239.534225,337.824615 249.225449,345.389313 
	C254.541107,349.538666 260.247711,353.187195 265.927826,357.166473 
	C266.479614,356.156281 266.830719,355.770416 266.907349,355.336121 
	C269.976929,337.944305 276.160797,321.740601 285.158966,306.550568 
	C285.826477,305.423767 285.449341,303.184296 284.770508,301.868225 
	C283.722321,299.835907 281.874298,298.235413 280.572418,296.311707 
	C269.497437,279.946625 258.469330,263.549866 248.095657,246.851807 
	C260.920166,236.621750 266.260315,222.392349 267.732635,206.883209 
	C268.548157,198.292740 267.724701,189.197861 265.718475,180.788757 
	C263.799713,172.746048 260.355774,164.675812 255.870453,157.721695 
	C247.594803,144.890915 234.951324,137.538330 220.810501,131.841064 
	C208.469345,126.868896 196.043152,127.621651 184.044571,129.853470 
	C161.081345,134.124817 144.565460,147.602417 134.747757,169.237076 
	C129.446503,180.919159 126.697212,192.922394 128.269714,205.557495 
	C129.121460,212.401245 130.484024,219.619446 133.608673,225.633499 
	C137.685562,233.480301 143.068436,240.917969 149.079102,247.434296 
	C161.387375,260.778046 176.679001,268.384277 195.636490,268.620636 
M741.117065,269.018646 
	C755.212463,267.883087 768.090881,263.121765 779.290833,254.672424 
	C796.486206,241.700119 806.428284,224.263687 807.843567,202.657928 
	C809.174561,182.339233 802.268250,164.468170 788.212891,149.991394 
	C776.058350,137.472488 761.580750,129.702499 743.181152,128.562241 
	C728.349243,127.643066 715.552368,130.578232 702.738159,137.684097 
	C682.796570,148.742249 671.976318,166.085297 668.450989,187.529221 
	C665.941406,202.794708 667.353943,218.415771 676.191772,232.297684 
	C679.649170,237.728363 682.379211,243.660355 688.110107,247.769714 
	C676.363159,264.894165 664.798584,282.148865 652.732117,299.045135 
	C649.954895,302.934052 649.109070,305.459564 651.753296,309.832062 
	C655.428589,315.909729 658.448242,322.493744 660.905273,329.171295 
	C664.216675,338.170685 666.725647,347.465332 669.969177,357.887146 
	C683.003052,347.932312 695.741516,338.395233 708.269958,328.589752 
	C727.615662,313.448608 738.922058,293.884338 741.117065,269.018646 
M328.494263,464.091431 
	C326.248566,468.579559 325.034515,473.276123 327.343262,478.004059 
	C328.863708,481.117676 330.896698,484.031128 333.010254,486.797333 
	C356.066010,516.972839 379.117401,547.152344 402.354797,577.187683 
	C405.798462,581.638794 407.636414,585.970276 407.164276,591.749695 
	C405.672607,610.009216 404.718201,628.311829 403.385193,646.585327 
	C401.700958,669.673279 399.917908,692.754578 398.010712,715.824951 
	C397.628601,720.447571 399.065277,723.648315 402.746155,726.507996 
	C421.425049,741.019348 439.902649,755.789734 458.569397,770.316895 
	C466.046906,776.136292 468.406433,776.233643 475.808228,770.486755 
	C495.412872,755.265015 514.796204,739.758423 534.363586,724.488220 
	C537.008911,722.423828 537.409485,720.048767 537.173523,717.074646 
	C535.895752,700.967102 534.640015,684.857544 533.461365,668.742493 
	C531.626831,643.660950 529.771362,618.580017 528.204895,593.481323 
	C528.050964,591.015076 529.220520,587.891357 530.846375,585.986450 
	C538.736938,576.741516 546.935425,567.755859 555.138428,558.782288 
	C560.892944,552.487244 564.678894,545.377441 566.462402,536.925293 
	C568.936584,525.200317 572.179077,513.639465 574.948914,501.974243 
	C577.044312,493.149658 578.914734,484.271637 581.184509,474.072968 
	C579.001709,476.161560 577.756836,477.217773 576.668457,478.416168 
	C570.061707,485.690704 563.450378,492.961853 556.919067,500.303986 
	C550.546997,507.467194 547.444946,508.320465 538.530640,505.059265 
	C510.546326,494.821686 482.578247,484.539307 454.570282,474.366913 
	C444.147003,470.581207 433.630707,467.051544 422.023834,463.010712 
	C430.961060,472.116241 439.191803,480.031250 446.881836,488.440704 
	C460.409515,503.233887 472.681396,518.927368 480.780579,537.544312 
	C490.759949,560.483215 493.303741,584.415710 490.361908,608.973450 
	C489.278809,618.014709 486.962921,626.940308 484.737213,635.800110 
	C483.521088,640.641052 479.138336,642.983459 474.809418,642.071899 
	C470.959503,641.261292 468.224792,637.232483 468.534790,632.500000 
	C468.675476,630.352356 469.136627,628.213928 469.587616,626.100220 
	C476.492065,593.738708 476.250702,562.167358 458.584747,532.767822 
	C441.402618,504.173492 421.012451,478.575836 390.614014,462.805359 
	C387.638367,461.261597 386.772125,459.749054 388.299469,456.627747 
	C390.858551,451.398010 393.347321,446.108765 395.417358,440.673798 
	C396.735291,437.213501 398.662415,436.797211 401.910095,437.539978 
	C409.210602,439.209717 416.551025,440.761383 423.937775,441.982361 
	C431.672943,443.260956 434.088593,441.698517 436.936890,434.468964 
	C438.340485,430.906433 439.754669,427.343903 441.008209,423.727386 
	C443.219849,417.346680 445.312164,410.924622 447.577759,404.151093 
	C444.460999,403.229584 442.130127,402.368774 439.725006,401.856628 
	C421.325500,397.939056 402.898071,394.152008 384.506989,390.195923 
	C372.789185,387.675354 365.803406,390.709015 360.279846,401.481842 
	C349.717896,422.081299 339.309296,442.759369 328.494263,464.091431 
M240.042465,681.379272 
	C232.400589,677.824890 224.774643,674.235596 217.106949,670.737854 
	C214.864349,669.714783 212.543533,668.320251 210.189636,668.169067 
	C189.164948,666.818604 169.452682,670.240356 152.966141,684.724792 
	C141.144714,695.110657 132.814499,707.792542 129.608139,723.195557 
	C126.975891,735.840637 127.509346,748.564270 132.264542,760.896667 
	C136.921890,772.975281 143.153610,783.723999 153.398788,792.193237 
	C164.546661,801.408691 176.778793,806.665833 191.275040,807.935425 
	C206.791687,809.294312 221.044281,806.158997 234.227570,798.386169 
	C246.213470,791.319275 254.677597,781.136414 261.299255,768.641541 
	C269.526947,753.116150 269.775909,736.965637 266.321899,721.044189 
	C262.893524,705.241028 253.647446,691.966492 240.042465,681.379272 
M687.999146,787.509583 
	C705.627441,804.491943 726.620300,811.484192 750.696472,807.194946 
	C772.416016,803.325562 788.831482,791.263916 799.010010,771.575989 
	C802.415833,764.988220 805.376038,757.828064 806.683960,750.593994 
	C807.988159,743.380676 807.222534,735.735474 806.898071,728.299927 
	C806.491028,718.972534 803.338257,710.163330 798.320129,702.575317 
	C789.784302,689.668030 778.540527,679.915588 764.074890,673.130554 
	C750.380432,666.707214 736.468567,667.310913 723.090393,669.915100 
	C698.248596,674.750671 680.763245,689.976379 672.179382,714.168579 
	C662.510437,741.418579 667.977417,765.756836 687.999146,787.509583 
M736.614197,478.092407 
	C746.118286,463.593536 752.473206,447.703979 756.758362,431.012878 
	C758.481934,424.299072 759.291199,417.318726 760.021484,410.407379 
	C760.175476,408.949707 758.453064,406.399994 757.064636,405.933807 
	C755.773560,405.500397 753.113098,406.703339 752.191101,407.995850 
	C744.048523,419.410248 732.910889,427.223907 721.144775,434.271027 
	C699.553406,447.202728 676.968567,457.494934 651.494934,459.986298 
	C650.169373,460.115936 648.781921,461.054169 647.695190,461.946930 
	C641.411560,467.108765 635.114136,472.262878 629.047363,477.673004 
	C627.524902,479.030731 626.198242,481.214600 625.872681,483.197937 
	C624.742004,490.085541 624.270508,497.079865 623.197876,503.979095 
	C622.416199,509.007172 621.082397,513.949402 619.884094,519.436584 
	C621.908630,519.436584 623.380615,519.416016 624.851990,519.439636 
	C646.003052,519.778992 666.728577,516.698242 686.938477,510.724731 
	C706.428955,504.963867 724.112061,496.023163 736.614197,478.092407 
M309.594238,499.769440 
	C308.909027,494.320587 308.512146,488.812500 307.411011,483.449036 
	C306.897919,480.949951 305.491882,478.243774 303.670074,476.478088 
	C298.540833,471.506836 293.039581,466.910828 287.560150,462.315735 
	C286.242554,461.210815 284.510590,460.202789 282.851318,459.961700 
	C255.402344,455.973236 230.901733,444.599457 208.104630,429.454559 
	C200.011292,424.077881 193.039551,417.002136 185.623688,410.623047 
	C183.394226,408.705261 182.611740,404.156921 178.511322,405.735168 
	C174.079758,407.440857 175.270599,411.724945 175.357101,415.308197 
	C175.373062,415.969574 175.528519,416.629089 175.637466,417.286499 
	C178.242401,433.005219 183.425934,447.908234 189.992294,462.360626 
	C198.033875,480.059906 209.961197,494.046112 227.843201,502.591400 
	C254.771744,515.459839 283.390045,519.447205 312.842377,519.319031 
	C313.243256,519.317322 313.642181,518.867615 314.158600,518.556763 
	C312.683502,512.520813 311.227997,506.565063 309.594238,499.769440 
M671.894470,397.206299 
	C670.567383,412.593048 666.579407,427.319824 659.533325,442.449677 
	C676.854248,436.912781 692.362244,431.013550 706.838196,422.713226 
	C722.025696,414.004883 735.869873,403.733002 744.201233,387.690643 
	C750.397522,375.759430 754.348267,363.016266 755.964172,349.739899 
	C757.669128,335.731415 758.636353,321.621521 759.444031,307.528290 
	C759.562439,305.461670 757.013672,303.242218 755.698975,301.093414 
	C753.912415,302.534393 751.409363,303.609528 750.456360,305.476105 
	C744.524536,317.093811 735.950562,326.525238 726.640076,335.409882 
	C711.256104,350.090179 693.756470,361.935486 675.805420,373.144104 
	C672.728210,375.065521 671.566528,377.091675 671.904419,380.799408 
	C672.370605,385.913818 671.991516,391.105255 671.894470,397.206299 
M268.480194,423.932159 
	C264.801300,410.880646 262.041626,397.612793 263.309692,384.031555 
	C263.949432,377.179901 261.237701,373.700287 255.940231,370.000732 
	C241.215958,359.717743 226.649704,349.144531 212.666687,337.884186 
	C201.354614,328.774780 191.594131,318.018707 184.892059,304.812592 
	C184.077805,303.208130 181.512115,301.141113 180.279022,301.439697 
	C178.705719,301.820618 177.177551,304.216797 176.517960,306.061829 
	C175.759476,308.183563 175.764603,310.654968 175.794708,312.969849 
	C176.042953,332.054932 178.832016,350.785553 184.009781,369.147095 
	C189.558746,388.824951 200.505829,404.619019 217.840698,415.784668 
	C233.040115,425.574890 249.173462,433.395081 266.373444,438.984985 
	C268.971344,439.829315 271.620361,440.516357 274.824615,441.443695 
	C272.598083,435.293365 270.678284,429.990295 268.480194,423.932159 
M703.787598,523.363342 
	C693.551819,526.262695 683.479370,530.462952 673.044067,531.773071 
	C654.920227,534.048584 636.568542,534.490356 618.323242,535.846680 
	C616.413513,535.988647 613.644165,536.550232 612.855774,537.865417 
	C607.399231,546.968506 602.362183,556.322998 597.012390,565.915894 
	C597.958618,566.604370 599.074646,567.598083 600.346924,568.314026 
	C613.324402,575.616760 626.843811,581.684570 641.488892,584.688232 
	C665.156860,589.542542 686.030029,584.146606 703.492432,566.971008 
	C716.197449,554.474548 726.162903,539.959778 734.803955,524.488831 
	C736.739075,521.024109 738.520813,517.351379 739.541016,513.551025 
	C740.030212,511.728516 739.106628,508.892303 737.789185,507.478333 
	C737.097595,506.736023 733.975952,507.677704 732.295166,508.533569 
	C722.979858,513.276978 713.770020,518.227600 703.787598,523.363342 
M222.244598,556.249390 
	C223.992981,558.258545 225.706924,560.298950 227.495102,562.272095 
	C244.750031,581.311462 265.591797,590.268372 291.470917,584.908081 
	C306.129425,581.871826 319.482483,575.453064 332.720612,568.773560 
	C334.574768,567.838013 336.283539,566.614319 338.232666,565.417786 
	C335.761658,561.675537 333.475159,558.414307 331.404541,555.021362 
	C329.238251,551.471741 326.699036,547.996948 325.356964,544.130493 
	C322.938477,537.163086 318.596191,535.619507 311.445404,535.658447 
	C272.583862,535.870239 235.083481,530.226135 202.047287,507.466370 
	C200.965683,506.721252 198.514343,506.607056 197.590210,507.331848 
	C196.417313,508.251709 195.345917,510.515778 195.656067,511.874908 
	C196.458450,515.391174 197.496017,519.078796 199.412689,522.075745 
	C206.665634,533.416565 214.305038,544.510315 222.244598,556.249390 
M653.235962,363.208282 
	C650.669678,347.535095 646.141113,332.559326 638.072083,318.819611 
	C622.721191,336.016846 607.715149,352.827728 592.496094,369.877289 
	C611.327332,395.697876 623.985107,424.189362 625.950623,457.646484 
	C634.113464,451.105103 639.888123,444.316803 644.099915,436.001404 
	C655.710754,413.078094 657.776550,389.011688 653.235962,363.208282 
M280.005554,386.521667 
	C280.013031,388.186768 279.996765,389.852386 280.031616,391.516937 
	C280.438599,410.956940 286.015656,428.904694 296.143860,445.386597 
	C298.614807,449.407684 302.255829,452.709778 305.358887,456.342438 
	C305.847137,456.079254 306.335358,455.816071 306.823608,455.552887 
	C307.720703,439.573761 311.090546,424.082306 318.035339,409.806763 
	C324.972687,395.546509 333.248657,381.937500 340.796844,368.297699 
	C326.658447,352.255463 312.117462,335.756470 297.278442,318.919281 
	C285.543182,339.744995 280.718475,362.095642 280.005554,386.521667 
M482.280548,467.263153 
	C494.540863,475.908905 503.523346,474.019165 510.990845,461.231659 
	C511.829285,459.795837 512.706970,458.382782 513.576111,456.965088 
	C523.482605,440.806519 533.631958,424.790314 543.210999,408.439972 
	C549.243835,398.142548 545.306396,386.596893 534.660889,380.980652 
	C523.524902,375.105652 511.519470,378.544952 506.121460,389.304779 
	C496.656128,408.171906 487.235474,427.061890 477.901703,445.994354 
	C472.847137,456.246887 473.425415,458.901672 482.280548,467.263153 
M583.151306,620.337769 
	C584.232056,621.114075 585.288269,621.927429 586.397156,622.661255 
	C618.141235,643.668945 651.969543,637.311157 676.772888,609.432617 
	C678.004456,608.048340 678.160156,605.706970 678.816833,603.811279 
	C676.976318,603.429504 675.066528,602.518005 673.305969,602.748169 
	C656.645996,604.925720 640.258118,603.178833 624.588806,597.686035 
	C611.815308,593.208374 599.646057,587.006836 588.716919,582.228943 
	C580.923157,589.195618 572.791687,596.464233 563.980469,604.340515 
	C570.415710,609.737244 576.490234,614.831421 583.151306,620.337769 
M317.490509,595.120300 
	C299.491150,602.031067 280.995026,605.184448 261.696594,602.766235 
	C259.954590,602.547913 258.067383,603.488281 256.247620,603.890503 
	C256.888916,605.662476 257.096985,607.802002 258.239594,609.148621 
	C267.837463,620.460022 279.759888,628.471802 293.956696,632.756104 
	C319.811951,640.558777 349.563843,626.839355 369.945099,603.715271 
	C361.863678,596.127319 353.778625,588.535950 345.910309,581.148071 
	C337.263794,585.423828 327.740417,590.133301 317.490509,595.120300 
M459.282928,421.749451 
	C454.686584,432.764862 453.675873,445.362518 444.689423,454.443329 
	C454.186401,458.458466 454.931213,458.200012 459.259338,449.292542 
	C465.146484,437.176697 471.013336,425.051025 476.887512,412.928894 
	C483.124603,400.057709 489.619019,387.302826 495.511688,374.275818 
	C499.954102,364.454956 495.874603,354.141235 486.021210,348.279388 
	C476.741455,342.758881 464.499969,344.363007 458.363068,352.263184 
	C456.153229,355.108002 454.643890,358.543213 453.081604,361.835571 
	C449.403748,369.586243 445.886505,377.413147 442.004913,385.860626 
	C446.108368,386.761108 449.323181,387.402832 452.505981,388.176392 
	C464.185150,391.014984 467.862854,397.576416 464.044891,408.839233 
	C462.656647,412.934479 461.079895,416.965851 459.282928,421.749451 
M558.513672,476.026093 
	C566.134888,467.220367 573.737061,458.398102 581.385803,449.616394 
	C584.811218,445.683502 586.754883,441.305756 586.308838,435.956421 
	C585.607788,427.549042 580.171387,420.922058 571.649658,418.315918 
	C562.890259,415.637115 555.702820,417.549652 550.569824,425.108032 
	C542.350220,437.211578 534.583191,449.627899 526.814453,462.030823 
	C519.381409,473.897858 523.777344,484.717224 537.380859,488.456757 
	C543.201050,490.056763 548.224060,488.939331 552.068359,483.928192 
	C553.991882,481.420898 556.059875,479.024475 558.513672,476.026093 
M406.691559,326.965240 
	C401.159668,329.559692 398.487366,334.531494 396.213318,339.762451 
	C393.035522,347.072510 389.983856,354.437469 386.887756,361.782990 
	C385.359985,365.407684 383.853546,369.041412 382.443939,372.416138 
	C383.098785,373.132019 383.282379,373.530334 383.539337,373.585266 
	C396.847412,376.429993 410.146088,379.326019 423.502808,381.923248 
	C424.668518,382.149902 426.916473,380.716766 427.480774,379.504730 
	C431.545319,370.775055 435.741150,362.058167 438.953125,353.003021 
	C440.295624,349.218231 440.366577,344.323914 439.247375,340.444153 
	C435.425049,327.193939 420.662750,321.097992 406.691559,326.965240 
M585.863953,671.390991 
	C597.256958,668.957886 607.716614,664.494141 616.642883,656.884766 
	C617.756165,655.935791 619.008850,653.901428 618.676636,652.850464 
	C618.331787,651.759460 616.181702,650.681396 614.749207,650.576172 
	C595.966492,649.195679 580.618408,640.350891 566.491882,628.739258 
	C565.342041,627.794189 564.041321,627.032715 561.968994,625.606628 
	C562.933594,642.087158 563.824402,657.306030 564.778015,673.598633 
	C571.939453,672.903503 578.494263,672.267212 585.863953,671.390991 
M372.454651,627.815186 
	C370.979401,628.192383 369.170807,628.147949 368.079498,629.010742 
	C354.063812,640.091614 339.168579,649.107849 320.747986,650.535645 
	C319.337738,650.644897 317.182831,651.699585 316.885834,652.744568 
	C316.568909,653.859619 317.675720,656.047241 318.804321,656.793030 
	C324.590881,660.616577 330.272034,664.847046 336.576904,667.582825 
	C346.989166,672.100952 358.042633,674.192139 369.885193,672.616089 
	C370.761108,657.763184 371.619598,643.205139 372.454651,627.815186 
z"/>
<path fill="#000000" opacity="1.000000" stroke="none" 
	d="
M424.531372,1.000007 
	C424.416107,1.659509 423.907532,2.803627 423.237335,2.907784 
	C405.475311,5.668181 387.487091,7.373240 369.976349,11.243774 
	C350.152863,15.625500 330.314514,20.734064 311.290161,27.724319 
	C290.214783,35.468208 269.786041,45.149551 249.562378,54.987602 
	C225.742172,66.575233 203.629715,81.139992 182.955414,97.696266 
	C170.376968,107.769272 158.305176,118.497948 146.306625,129.267273 
	C121.953575,151.125366 101.670250,176.483994 82.881966,203.179642 
	C67.401886,225.174759 54.536423,248.622116 43.127506,272.864380 
	C30.759079,299.145538 21.199343,326.550110 14.345686,354.750610 
	C10.307827,371.365082 7.948493,388.394348 5.038360,405.272247 
	C4.037414,411.077454 3.691784,416.993988 2.950762,422.847534 
	C2.839124,423.729370 2.201020,424.544586 1.403222,425.195312 
	C1.000000,283.739594 1.000000,142.479172 1.000000,1.000000 
	C142.020813,1.000000 283.041748,1.000000 424.531372,1.000007 
z"/>
<path fill="#000000" opacity="1.000000" stroke="none" 
	d="
M935.000000,424.531342 
	C934.340515,424.416077 933.196350,423.907501 933.092224,423.237305 
	C930.331787,405.475342 928.626770,387.487152 924.756165,369.976440 
	C920.374512,350.152985 915.265869,330.314667 908.275574,311.290314 
	C900.531555,290.214722 890.850159,269.785706 881.011902,249.561874 
	C869.424194,225.741714 854.860046,203.628860 838.303223,182.954956 
	C828.229980,170.376724 817.499756,158.306335 806.731262,146.307007 
	C784.874756,121.952522 759.515686,101.670387 732.820435,82.882095 
	C710.825439,67.401871 687.378113,54.536438 663.135803,43.127590 
	C636.854675,30.759254 609.450134,21.199377 581.249634,14.345798 
	C564.635193,10.307973 547.606018,7.948542 530.728088,5.038376 
	C524.922852,4.037412 519.006409,3.691799 513.152893,2.950775 
	C512.270874,2.839116 511.455536,2.201013 510.804688,1.403214 
	C652.260376,1.000000 793.520813,1.000000 935.000000,1.000000 
	C935.000000,142.020813 935.000000,283.041748 935.000000,424.531342 
z"/>
<path fill="#000000" opacity="1.000000" stroke="none" 
	d="
M511.468689,935.000000 
	C511.583893,934.340515 512.092468,933.196350 512.762634,933.092224 
	C530.524597,930.331787 548.512817,928.626526 566.023621,924.756042 
	C585.847107,920.374390 605.685608,915.266052 624.709961,908.275757 
	C645.785278,900.531860 666.213989,890.850525 686.437561,881.012512 
	C710.257690,869.424805 732.370239,854.860229 753.044312,838.303772 
	C765.622803,828.230652 777.693420,817.500488 789.693054,806.732117 
	C814.048462,784.876038 834.328125,759.514404 853.117310,732.819763 
	C868.598267,710.825317 881.463440,687.377869 892.872375,663.135742 
	C905.240967,636.854614 914.800659,609.450012 921.654236,581.249512 
	C925.692017,564.635071 928.051453,547.605835 930.961609,530.727905 
	C931.962524,524.922668 932.308167,519.006226 933.049255,513.152710 
	C933.160889,512.270813 933.799072,511.455505 934.596802,510.804688 
	C935.000000,652.260376 935.000000,793.520813 935.000000,935.000000 
	C793.979187,935.000000 652.958252,935.000000 511.468689,935.000000 
z"/>
<path fill="#000000" opacity="1.000000" stroke="none" 
	d="
M1.000005,511.468658 
	C1.659504,511.583893 2.803614,512.092468 2.907779,512.762695 
	C5.668168,530.524658 7.373254,548.512878 11.243778,566.023682 
	C15.625512,585.847168 20.734037,605.685486 27.724325,624.709839 
	C35.468212,645.785278 45.149609,666.213989 54.987656,686.437683 
	C66.575310,710.257874 81.140022,732.370361 97.696358,753.044617 
	C107.769302,765.622986 118.497810,777.694702 129.267090,789.693115 
	C151.125290,814.046143 176.483673,834.329773 203.179382,853.118042 
	C225.174606,868.597961 248.621872,881.463623 272.864227,892.872437 
	C299.145386,905.240845 326.549957,914.800659 354.750549,921.654175 
	C371.365021,925.692078 388.394287,928.051392 405.272217,930.961548 
	C411.077454,931.962524 416.993958,932.308228 422.847534,933.049255 
	C423.729370,933.160889 424.544617,933.798950 425.195312,934.596802 
	C283.739594,935.000000 142.479172,935.000000 1.000000,935.000000 
	C1.000000,793.979187 1.000000,652.958252 1.000005,511.468658 
z"/>
<path fill="#FDFEFE" opacity="1.000000" stroke="none" 
	d="
M328.665649,463.748108 
	C339.309296,442.759369 349.717896,422.081299 360.279846,401.481842 
	C365.803406,390.709015 372.789185,387.675354 384.506989,390.195923 
	C402.898071,394.152008 421.325500,397.939056 439.725006,401.856628 
	C442.130127,402.368774 444.460999,403.229584 447.577759,404.151093 
	C445.312164,410.924622 443.219849,417.346680 441.008209,423.727386 
	C439.754669,427.343903 438.340485,430.906433 436.936890,434.468964 
	C434.088593,441.698517 431.672943,443.260956 423.937775,441.982361 
	C416.551025,440.761383 409.210602,439.209717 401.910095,437.539978 
	C398.662415,436.797211 396.735291,437.213501 395.417358,440.673798 
	C393.347321,446.108765 390.858551,451.398010 388.299469,456.627747 
	C386.772125,459.749054 387.638367,461.261597 390.614014,462.805359 
	C421.012451,478.575836 441.402618,504.173492 458.584747,532.767822 
	C476.250702,562.167358 476.492065,593.738708 469.587616,626.100220 
	C469.136627,628.213928 468.675476,630.352356 468.534790,632.500000 
	C468.224792,637.232483 470.959503,641.261292 474.809418,642.071899 
	C479.138336,642.983459 483.521088,640.641052 484.737213,635.800110 
	C486.962921,626.940308 489.278809,618.014709 490.361908,608.973450 
	C493.303741,584.415710 490.759949,560.483215 480.780579,537.544312 
	C472.681396,518.927368 460.409515,503.233887 446.881836,488.440704 
	C439.191803,480.031250 430.961060,472.116241 422.023834,463.010712 
	C433.630707,467.051544 444.147003,470.581207 454.570282,474.366913 
	C482.578247,484.539307 510.546326,494.821686 538.530640,505.059265 
	C547.444946,508.320465 550.546997,507.467194 556.919067,500.303986 
	C563.450378,492.961853 570.061707,485.690704 576.668457,478.416168 
	C577.756836,477.217773 579.001709,476.161560 581.184509,474.072968 
	C578.914734,484.271637 577.044312,493.149658 574.948914,501.974243 
	C572.179077,513.639465 568.936584,525.200317 566.462402,536.925293 
	C564.678894,545.377441 560.892944,552.487244 555.138428,558.782288 
	C546.935425,567.755859 538.736938,576.741516 530.846375,585.986450 
	C529.220520,587.891357 528.050964,591.015076 528.204895,593.481323 
	C529.771362,618.580017 531.626831,643.660950 533.461365,668.742493 
	C534.640015,684.857544 535.895752,700.967102 537.173523,717.074646 
	C537.409485,720.048767 537.008911,722.423828 534.363586,724.488220 
	C514.796204,739.758423 495.412872,755.265015 475.808228,770.486755 
	C468.406433,776.233643 466.046906,776.136292 458.569397,770.316895 
	C439.902649,755.789734 421.425049,741.019348 402.746155,726.507996 
	C399.065277,723.648315 397.628601,720.447571 398.010712,715.824951 
	C399.917908,692.754578 401.700958,669.673279 403.385193,646.585327 
	C404.718201,628.311829 405.672607,610.009216 407.164276,591.749695 
	C407.636414,585.970276 405.798462,581.638794 402.354797,577.187683 
	C379.117401,547.152344 356.066010,516.972839 333.010254,486.797333 
	C330.896698,484.031128 328.863708,481.117676 327.343262,478.004059 
	C325.034515,473.276123 326.248566,468.579559 328.665649,463.748108 
z"/>
<path fill="#1A9BD6" opacity="1.000000" stroke="none" 
	d="
M240.346558,681.574463 
	C253.647446,691.966492 262.893524,705.241028 266.321899,721.044189 
	C269.775909,736.965637 269.526947,753.116150 261.299255,768.641541 
	C254.677597,781.136414 246.213470,791.319275 234.227570,798.386169 
	C221.044281,806.158997 206.791687,809.294312 191.275040,807.935425 
	C176.778793,806.665833 164.546661,801.408691 153.398788,792.193237 
	C143.153610,783.723999 136.921890,772.975281 132.264542,760.896667 
	C127.509346,748.564270 126.975891,735.840637 129.608139,723.195557 
	C132.814499,707.792542 141.144714,695.110657 152.966141,684.724792 
	C169.452682,670.240356 189.164948,666.818604 210.189636,668.169067 
	C212.543533,668.320251 214.864349,669.714783 217.106949,670.737854 
	C224.774643,674.235596 232.400589,677.824890 240.346558,681.574463 
z"/>
<path fill="#1A9BD7" opacity="1.000000" stroke="none" 
	d="
M687.746704,787.257812 
	C667.977417,765.756836 662.510437,741.418579 672.179382,714.168579 
	C680.763245,689.976379 698.248596,674.750671 723.090393,669.915100 
	C736.468567,667.310913 750.380432,666.707214 764.074890,673.130554 
	C778.540527,679.915588 789.784302,689.668030 798.320129,702.575317 
	C803.338257,710.163330 806.491028,718.972534 806.898071,728.299927 
	C807.222534,735.735474 807.988159,743.380676 806.683960,750.593994 
	C805.376038,757.828064 802.415833,764.988220 799.010010,771.575989 
	C788.831482,791.263916 772.416016,803.325562 750.696472,807.194946 
	C726.620300,811.484192 705.627441,804.491943 687.746704,787.257812 
z"/>
<path fill="#1A9BD6" opacity="1.000000" stroke="none" 
	d="
M688.265381,247.068146 
	C682.379211,243.660355 679.649170,237.728363 676.191772,232.297684 
	C667.353943,218.415771 665.941406,202.794708 668.450989,187.529221 
	C671.976318,166.085297 682.796570,148.742249 702.738159,137.684097 
	C715.552368,130.578232 728.349243,127.643066 743.181152,128.562241 
	C761.580750,129.702499 776.058350,137.472488 788.212891,149.991394 
	C802.268250,164.468170 809.174561,182.339233 807.843567,202.657928 
	C806.428284,224.263687 796.486206,241.700119 779.290833,254.672424 
	C768.090881,263.121765 755.212463,267.883087 740.646606,268.555695 
	C741.699402,237.793579 735.302551,208.886765 724.560791,180.801498 
	C723.543823,178.142365 720.992188,176.070160 719.153015,173.725464 
	C717.691406,176.254654 715.462158,178.621811 714.888794,181.338470 
	C709.924988,204.857010 700.988770,226.717285 688.265381,247.068146 
z"/>
<path fill="#1A9BD6" opacity="1.000000" stroke="none" 
	d="
M195.332382,267.861908 
	C176.679001,268.384277 161.387375,260.778046 149.079102,247.434296 
	C143.068436,240.917969 137.685562,233.480301 133.608673,225.633499 
	C130.484024,219.619446 129.121460,212.401245 128.269714,205.557495 
	C126.697212,192.922394 129.446503,180.919159 134.747757,169.237076 
	C144.565460,147.602417 161.081345,134.124817 184.044571,129.853470 
	C196.043152,127.621651 208.469345,126.868896 220.810501,131.841064 
	C234.951324,137.538330 247.594803,144.890915 255.870453,157.721695 
	C260.355774,164.675812 263.799713,172.746048 265.718475,180.788757 
	C267.724701,189.197861 268.548157,198.292740 267.732635,206.883209 
	C266.260315,222.392349 260.920166,236.621750 247.520523,246.790390 
	C235.065262,226.159088 225.355453,204.726471 220.855820,181.215286 
	C220.575150,179.748871 220.421402,178.118500 219.651352,176.923523 
	C218.833694,175.654648 217.457916,174.230988 216.122498,173.986694 
	C215.194229,173.816879 213.519669,175.302017 212.888672,176.441147 
	C211.610779,178.748169 210.747543,181.297455 209.831207,183.790192 
	C199.856247,210.925430 194.488693,238.859085 195.332382,267.861908 
z"/>
<path fill="#FCFEFE" opacity="1.000000" stroke="none" 
	d="
M688.187744,247.418930 
	C700.988770,226.717285 709.924988,204.857010 714.888794,181.338470 
	C715.462158,178.621811 717.691406,176.254654 719.153015,173.725464 
	C720.992188,176.070160 723.543823,178.142365 724.560791,180.801498 
	C735.302551,208.886765 741.699402,237.793579 740.232239,268.560303 
	C738.922058,293.884338 727.615662,313.448608 708.269958,328.589752 
	C695.741516,338.395233 683.003052,347.932312 669.969177,357.887146 
	C666.725647,347.465332 664.216675,338.170685 660.905273,329.171295 
	C658.448242,322.493744 655.428589,315.909729 651.753296,309.832062 
	C649.109070,305.459564 649.954895,302.934052 652.732117,299.045135 
	C664.798584,282.148865 676.363159,264.894165 688.187744,247.418930 
z"/>
<path fill="#FCFEFE" opacity="1.000000" stroke="none" 
	d="
M195.484436,268.241272 
	C194.488693,238.859085 199.856247,210.925430 209.831207,183.790192 
	C210.747543,181.297455 211.610779,178.748169 212.888672,176.441147 
	C213.519669,175.302017 215.194229,173.816879 216.122498,173.986694 
	C217.457916,174.230988 218.833694,175.654648 219.651352,176.923523 
	C220.421402,178.118500 220.575150,179.748871 220.855820,181.215286 
	C225.355453,204.726471 235.065262,226.159088 247.186264,246.945770 
	C258.469330,263.549866 269.497437,279.946625 280.572418,296.311707 
	C281.874298,298.235413 283.722321,299.835907 284.770508,301.868225 
	C285.449341,303.184296 285.826477,305.423767 285.158966,306.550568 
	C276.160797,321.740601 269.976929,337.944305 266.907349,355.336121 
	C266.830719,355.770416 266.479614,356.156281 265.927826,357.166473 
	C260.247711,353.187195 254.541107,349.538666 249.225449,345.389313 
	C239.534225,337.824615 229.845703,330.226624 220.569351,322.166870 
	C204.370789,308.092682 196.265213,290.046936 195.484436,268.241272 
z"/>
<path fill="#FCFDFE" opacity="1.000000" stroke="none" 
	d="
M736.401062,478.384155 
	C724.112061,496.023163 706.428955,504.963867 686.938477,510.724731 
	C666.728577,516.698242 646.003052,519.778992 624.851990,519.439636 
	C623.380615,519.416016 621.908630,519.436584 619.884094,519.436584 
	C621.082397,513.949402 622.416199,509.007172 623.197876,503.979095 
	C624.270508,497.079865 624.742004,490.085541 625.872681,483.197937 
	C626.198242,481.214600 627.524902,479.030731 629.047363,477.673004 
	C635.114136,472.262878 641.411560,467.108765 647.695190,461.946930 
	C648.781921,461.054169 650.169373,460.115936 651.494934,459.986298 
	C676.968567,457.494934 699.553406,447.202728 721.144775,434.271027 
	C732.910889,427.223907 744.048523,419.410248 752.191101,407.995850 
	C753.113098,406.703339 755.773560,405.500397 757.064636,405.933807 
	C758.453064,406.399994 760.175476,408.949707 760.021484,410.407379 
	C759.291199,417.318726 758.481934,424.299072 756.758362,431.012878 
	C752.473206,447.703979 746.118286,463.593536 736.401062,478.384155 
z"/>
<path fill="#FCFDFE" opacity="1.000000" stroke="none" 
	d="
M309.683350,500.189362 
	C311.227997,506.565063 312.683502,512.520813 314.158600,518.556763 
	C313.642181,518.867615 313.243256,519.317322 312.842377,519.319031 
	C283.390045,519.447205 254.771744,515.459839 227.843201,502.591400 
	C209.961197,494.046112 198.033875,480.059906 189.992294,462.360626 
	C183.425934,447.908234 178.242401,433.005219 175.637466,417.286499 
	C175.528519,416.629089 175.373062,415.969574 175.357101,415.308197 
	C175.270599,411.724945 174.079758,407.440857 178.511322,405.735168 
	C182.611740,404.156921 183.394226,408.705261 185.623688,410.623047 
	C193.039551,417.002136 200.011292,424.077881 208.104630,429.454559 
	C230.901733,444.599457 255.402344,455.973236 282.851318,459.961700 
	C284.510590,460.202789 286.242554,461.210815 287.560150,462.315735 
	C293.039581,466.910828 298.540833,471.506836 303.670074,476.478088 
	C305.491882,478.243774 306.897919,480.949951 307.411011,483.449036 
	C308.512146,488.812500 308.909027,494.320587 309.683350,500.189362 
z"/>
<path fill="#FCFDFE" opacity="1.000000" stroke="none" 
	d="
M671.934448,396.734985 
	C671.991516,391.105255 672.370605,385.913818 671.904419,380.799408 
	C671.566528,377.091675 672.728210,375.065521 675.805420,373.144104 
	C693.756470,361.935486 711.256104,350.090179 726.640076,335.409882 
	C735.950562,326.525238 744.524536,317.093811 750.456360,305.476105 
	C751.409363,303.609528 753.912415,302.534393 755.698975,301.093445 
	C757.013672,303.242218 759.562439,305.461670 759.444031,307.528290 
	C758.636353,321.621521 757.669128,335.731415 755.964172,349.739899 
	C754.348267,363.016266 750.397522,375.759430 744.201233,387.690643 
	C735.869873,403.733002 722.025696,414.004883 706.838196,422.713226 
	C692.362244,431.013550 676.854248,436.912781 659.533325,442.449677 
	C666.579407,427.319824 670.567383,412.593048 671.934448,396.734985 
z"/>
<path fill="#FCFDFE" opacity="1.000000" stroke="none" 
	d="
M268.619324,424.309692 
	C270.678284,429.990295 272.598083,435.293365 274.824615,441.443695 
	C271.620361,440.516357 268.971344,439.829315 266.373444,438.984985 
	C249.173462,433.395081 233.040115,425.574890 217.840698,415.784668 
	C200.505829,404.619019 189.558746,388.824951 184.009781,369.147095 
	C178.832016,350.785553 176.042953,332.054932 175.794708,312.969849 
	C175.764603,310.654968 175.759476,308.183563 176.517960,306.061829 
	C177.177551,304.216797 178.705719,301.820618 180.279022,301.439697 
	C181.512115,301.141113 184.077805,303.208130 184.892059,304.812592 
	C191.594131,318.018707 201.354614,328.774780 212.666687,337.884186 
	C226.649704,349.144531 241.215958,359.717743 255.940231,370.000732 
	C261.237701,373.700287 263.949432,377.179901 263.309692,384.031555 
	C262.041626,397.612793 264.801300,410.880646 268.619324,424.309692 
z"/>
<path fill="#FCFDFE" opacity="1.000000" stroke="none" 
	d="
M704.155884,523.235352 
	C713.770020,518.227600 722.979858,513.276978 732.295166,508.533569 
	C733.975952,507.677704 737.097595,506.736023 737.789185,507.478333 
	C739.106628,508.892303 740.030212,511.728516 739.541016,513.551025 
	C738.520813,517.351379 736.739075,521.024109 734.803955,524.488831 
	C726.162903,539.959778 716.197449,554.474548 703.492432,566.971008 
	C686.030029,584.146606 665.156860,589.542542 641.488892,584.688232 
	C626.843811,581.684570 613.324402,575.616760 600.346924,568.314026 
	C599.074646,567.598083 597.958618,566.604370 597.012390,565.915894 
	C602.362183,556.322998 607.399231,546.968506 612.855774,537.865417 
	C613.644165,536.550232 616.413513,535.988647 618.323242,535.846680 
	C636.568542,534.490356 654.920227,534.048584 673.044067,531.773071 
	C683.479370,530.462952 693.551819,526.262695 704.155884,523.235352 
z"/>
<path fill="#FCFEFE" opacity="1.000000" stroke="none" 
	d="
M222.022217,555.972900 
	C214.305038,544.510315 206.665634,533.416565 199.412689,522.075745 
	C197.496017,519.078796 196.458450,515.391174 195.656067,511.874908 
	C195.345917,510.515778 196.417313,508.251709 197.590210,507.331848 
	C198.514343,506.607056 200.965683,506.721252 202.047287,507.466370 
	C235.083481,530.226135 272.583862,535.870239 311.445404,535.658447 
	C318.596191,535.619507 322.938477,537.163086 325.356964,544.130493 
	C326.699036,547.996948 329.238251,551.471741 331.404541,555.021362 
	C333.475159,558.414307 335.761658,561.675537 338.232666,565.417786 
	C336.283539,566.614319 334.574768,567.838013 332.720612,568.773560 
	C319.482483,575.453064 306.129425,581.871826 291.470917,584.908081 
	C265.591797,590.268372 244.750031,581.311462 227.495102,562.272095 
	C225.706924,560.298950 223.992981,558.258545 222.022217,555.972900 
z"/>
<path fill="#FCFDFE" opacity="1.000000" stroke="none" 
	d="
M653.315430,363.638245 
	C657.776550,389.011688 655.710754,413.078094 644.099915,436.001404 
	C639.888123,444.316803 634.113464,451.105103 625.950623,457.646484 
	C623.985107,424.189362 611.327332,395.697876 592.496094,369.877289 
	C607.715149,352.827728 622.721191,336.016846 638.072083,318.819611 
	C646.141113,332.559326 650.669678,347.535095 653.315430,363.638245 
z"/>
<path fill="#FBFDFE" opacity="1.000000" stroke="none" 
	d="
M280.010498,386.029388 
	C280.718475,362.095642 285.543182,339.744995 297.278442,318.919281 
	C312.117462,335.756470 326.658447,352.255463 340.796844,368.297699 
	C333.248657,381.937500 324.972687,395.546509 318.035339,409.806763 
	C311.090546,424.082306 307.720703,439.573761 306.823608,455.552887 
	C306.335358,455.816071 305.847137,456.079254 305.358887,456.342438 
	C302.255829,452.709778 298.614807,449.407684 296.143860,445.386597 
	C286.015656,428.904694 280.438599,410.956940 280.031616,391.516937 
	C279.996765,389.852386 280.013031,388.186768 280.010498,386.029388 
z"/>
<path fill="#FBFDFE" opacity="1.000000" stroke="none" 
	d="
M481.998474,467.039154 
	C473.425415,458.901672 472.847137,456.246887 477.901703,445.994354 
	C487.235474,427.061890 496.656128,408.171906 506.121460,389.304779 
	C511.519470,378.544952 523.524902,375.105652 534.660889,380.980652 
	C545.306396,386.596893 549.243835,398.142548 543.210999,408.439972 
	C533.631958,424.790314 523.482605,440.806519 513.576111,456.965088 
	C512.706970,458.382782 511.829285,459.795837 510.990845,461.231659 
	C503.523346,474.019165 494.540863,475.908905 481.998474,467.039154 
z"/>
<path fill="#FBFDFE" opacity="1.000000" stroke="none" 
	d="
M582.858032,620.131714 
	C576.490234,614.831421 570.415710,609.737244 563.980469,604.340515 
	C572.791687,596.464233 580.923157,589.195618 588.716919,582.228943 
	C599.646057,587.006836 611.815308,593.208374 624.588806,597.686035 
	C640.258118,603.178833 656.645996,604.925720 673.305969,602.748169 
	C675.066528,602.518005 676.976318,603.429504 678.816833,603.811279 
	C678.160156,605.706970 678.004456,608.048340 676.772888,609.432617 
	C651.969543,637.311157 618.141235,643.668945 586.397156,622.661255 
	C585.288269,621.927429 584.232056,621.114075 582.858032,620.131714 
z"/>
<path fill="#FBFDFE" opacity="1.000000" stroke="none" 
	d="
M317.853790,594.981506 
	C327.740417,590.133301 337.263794,585.423828 345.910309,581.148071 
	C353.778625,588.535950 361.863678,596.127319 369.945099,603.715271 
	C349.563843,626.839355 319.811951,640.558777 293.956696,632.756104 
	C279.759888,628.471802 267.837463,620.460022 258.239594,609.148621 
	C257.096985,607.802002 256.888916,605.662476 256.247620,603.890503 
	C258.067383,603.488281 259.954590,602.547913 261.696594,602.766235 
	C280.995026,605.184448 299.491150,602.031067 317.853790,594.981506 
z"/>
<path fill="#F9FCFE" opacity="1.000000" stroke="none" 
	d="
M459.436035,421.387909 
	C461.079895,416.965851 462.656647,412.934479 464.044891,408.839233 
	C467.862854,397.576416 464.185150,391.014984 452.505981,388.176392 
	C449.323181,387.402832 446.108368,386.761108 442.004913,385.860626 
	C445.886505,377.413147 449.403748,369.586243 453.081604,361.835571 
	C454.643890,358.543213 456.153229,355.108002 458.363068,352.263184 
	C464.499969,344.363007 476.741455,342.758881 486.021210,348.279388 
	C495.874603,354.141235 499.954102,364.454956 495.511688,374.275818 
	C489.619019,387.302826 483.124603,400.057709 476.887512,412.928894 
	C471.013336,425.051025 465.146484,437.176697 459.259338,449.292542 
	C454.931213,458.200012 454.186401,458.458466 444.689423,454.443329 
	C453.675873,445.362518 454.686584,432.764862 459.436035,421.387909 
z"/>
<path fill="#FBFDFE" opacity="1.000000" stroke="none" 
	d="
M558.288086,476.302002 
	C556.059875,479.024475 553.991882,481.420898 552.068359,483.928192 
	C548.224060,488.939331 543.201050,490.056763 537.380859,488.456757 
	C523.777344,484.717224 519.381409,473.897858 526.814453,462.030823 
	C534.583191,449.627899 542.350220,437.211578 550.569824,425.108032 
	C555.702820,417.549652 562.890259,415.637115 571.649658,418.315918 
	C580.171387,420.922058 585.607788,427.549042 586.308838,435.956421 
	C586.754883,441.305756 584.811218,445.683502 581.385803,449.616394 
	C573.737061,458.398102 566.134888,467.220367 558.288086,476.302002 
z"/>
<path fill="#FBFDFE" opacity="1.000000" stroke="none" 
	d="
M407.045898,326.831055 
	C420.662750,321.097992 435.425049,327.193939 439.247375,340.444153 
	C440.366577,344.323914 440.295624,349.218231 438.953125,353.003021 
	C435.741150,362.058167 431.545319,370.775055 427.480774,379.504730 
	C426.916473,380.716766 424.668518,382.149902 423.502808,381.923248 
	C410.146088,379.326019 396.847412,376.429993 383.539337,373.585266 
	C383.282379,373.530334 383.098785,373.132019 382.443939,372.416138 
	C383.853546,369.041412 385.359985,365.407684 386.887756,361.782990 
	C389.983856,354.437469 393.035522,347.072510 396.213318,339.762451 
	C398.487366,334.531494 401.159668,329.559692 407.045898,326.831055 
z"/>
<path fill="#F9FCFE" opacity="1.000000" stroke="none" 
	d="
M585.456482,671.510986 
	C578.494263,672.267212 571.939453,672.903503 564.778015,673.598633 
	C563.824402,657.306030 562.933594,642.087158 561.968994,625.606628 
	C564.041321,627.032715 565.342041,627.794189 566.491882,628.739258 
	C580.618408,640.350891 595.966492,649.195679 614.749207,650.576172 
	C616.181702,650.681396 618.331787,651.759460 618.676636,652.850464 
	C619.008850,653.901428 617.756165,655.935791 616.642883,656.884766 
	C607.716614,664.494141 597.256958,668.957886 585.456482,671.510986 
z"/>
<path fill="#F8FCFE" opacity="1.000000" stroke="none" 
	d="
M372.466370,628.231079 
	C371.619598,643.205139 370.761108,657.763184 369.885193,672.616089 
	C358.042633,674.192139 346.989166,672.100952 336.576904,667.582825 
	C330.272034,664.847046 324.590881,660.616577 318.804321,656.793030 
	C317.675720,656.047241 316.568909,653.859619 316.885834,652.744568 
	C317.182831,651.699585 319.337738,650.644897 320.747986,650.535645 
	C339.168579,649.107849 354.063812,640.091614 368.079498,629.010742 
	C369.170807,628.147949 370.979401,628.192383 372.466370,628.231079 
z"/>
</svg>